<svg xmlns="http://www.w3.org/2000/svg" viewBox="0 0 64 64" fill="none" role="img" aria-label="Humo">
  <defs>
    <linearGradient id="humoGrad" x1="8" y1="8" x2="56" y2="56" gradientUnits="userSpaceOnUse">
      <stop stop-color="#5eead4"/>
      <stop offset="0.45" stop-color="#2dd4bf"/>
      <stop offset="1" stop-color="#0d9488"/>
    </linearGradient>
    <linearGradient id="humoGradSoft" x1="20" y1="12" x2="44" y2="52" gradientUnits="userSpaceOnUse">
      <stop stop-color="#99f6e4"/>
      <stop offset="1" stop-color="#14b8a6"/>
    </linearGradient>
  </defs>
  <path d="M14 10c0 0 2 2 2 8v28c0 4-1.5 6-4 6" stroke="url(#humoGrad)" stroke-width="7" stroke-linecap="round"/>
  <path d="M50 10c0 0-2 2-2 8v28c0 4 1.5 6 4 6" stroke="url(#humoGrad)" stroke-width="7" stroke-linecap="round"/>
  <path d="M16 24c8 2 12 14 16 14s8-12 16-14" stroke="url(#humoGradSoft)" stroke-width="6.5" stroke-linecap="round" opacity="0.95"/>
  <path d="M18 30c7 1.5 10 10 14 10s7-8.5 14-10" stroke="url(#humoGrad)" stroke-width="3.5" stroke-linecap="round" opacity="0.55"/>
</svg>
